# AST/ASF file generated using VICON BodyLanguage
# -----------------------------------------------
:version 1.10
:name VICON
:units
  mass 1.0
  length 0.45
  angle deg
:documentation
   .ast/.asf automatically generated from VICON data using
   VICON BodyBuilder and BodyLanguage model FoxedUp or BRILLIANT.MOD
:root
   order TX TY TZ RX RY RZ
   axis XYZ
   position 0 0 0  
   orientation 0 0 0 
:bonedata
  begin
     id 1 
     name lhipjoint
     direction 0.660183 -0.676772 0.325788 
     length 2.75133 
     axis 0 0 0  XYZ
  end
  begin
     id 2 
     name lfemur
     direction 0.34202 -0.939693 0  
     length 7.70317  
     axis 0 0 20  XYZ
    dof rx ry rz
    limits (-160.0 20.0)
           (-70.0 70.0)
           (-60.0 70.0)
  end
  begin
     id 3 
     name ltibia
     direction 0.342105 -0.939662 0   
     length 7.18701   
     axis 0 0 20   XYZ
    dof rx
    limits (-10.0 170.0)
  end
  begin
     id 4 
     name lfoot
     direction 0.14163 -0.389126 0.910232   
     length 2.41719   
     axis -90 7.62852e-016 20   XYZ
    dof rx rz
    limits (-45.0 90.0)
           (-70.0 20.0)
  end
  begin
     id 5 
     name ltoes
     direction 1.53533e-011 -4.21926e-011 1   
     length 1.18611   
     axis -90 7.62852e-016 20   XYZ
    dof rx
    limits (-90.0 20.0)
  end
  begin
     id 6 
     name rhipjoint
     direction -0.6658 -0.67229 0.323631   
     length 2.76968  
     axis 0 0 0  XYZ 
  end
  begin
     id 7 
     name rfemur
     direction -0.34202 -0.939693 0   
     length 7.92547   
     axis 0 0 -20   XYZ
    dof rx ry rz
    limits (-160.0 20.0)
           (-70.0 70.0)
           (-70.0 60.0)
  end
  begin
     id 8 
     name rtibia
     direction -0.342022 -0.939692 0   
     length 7.22641   
     axis 0 0 -20   XYZ
    dof rx
    limits (-10.0 170.0)
 end
 begin
     id 9 
     name rfoot
     direction -0.105675 -0.29034 0.951071   
     length 2.48149  
     axis -90 -7.62852e-016 -20   XYZ
    dof rx rz
    limits (-45.0 90.0)
           (-20.0 70.0)
  end
  begin
     id 10 
     name rtoes
     direction -1.5349e-011 -4.21859e-011 1   
     length 1.23343   
     axis -90 -7.62852e-016 -20   XYZ
    dof rx
    limits (-90.0 20.0)
  end
  begin
     id 11 
     name lowerback
     direction 0.0104173 0.993624 -0.112266   
     length 2.00527   
     axis 0 0 0   XYZ
    dof rx ry rz
    limits (-20.0 45.0)
           (-30.0 30.0)
           (-30.0 30.0)
  end
  begin
     id 12 
     name upperback
     direction 0.00733149 0.999856 -0.0152913   
     length 2.01385   
     axis 0 0 0   XYZ
    dof rx ry rz
    limits (-20.0 45.0)
           (-30.0 30.0)
           (-30.0 30.0)
  end
  begin
     id 13 
     name thorax
     direction 0.0026304 0.999318 0.036841   
     length 2.03734   
     axis 0 0 0   XYZ
    dof rx ry rz
    limits (-20.0 45.0)
           (-30.0 30.0)
           (-30.0 30.0)
  end
  begin
     id 14 
     name lowerneck
     direction 0.0293154 0.998757 0.0403082   
     length 1.65303   
     axis 0 0 0   XYZ
    dof rx ry rz
    limits (-20.0 45.0)
           (-30.0 30.0)
           (-30.0 30.0)
  end
  begin
     id 15 
     name upperneck
     direction -0.0376619 0.998184 -0.0470083   
     length 1.60926   
     axis 0 0 0   XYZ
    dof rx ry rz
    limits (-20.0 45.0)
           (-30.0 30.0)
           (-30.0 30.0)
  end
  begin
     id 16
     name head
     direction -0.0170133 0.999635 -0.0209778  
     length 1.73625  
     axis 0 0 0   XYZ
    dof rx ry rz
    limits (-20.0 45.0)
           (-30.0 30.0)
           (-30.0 30.0)
  end
  begin
     id 17 
     name lclavicle
     direction 0.919857 0.39181 -0.0186333  
     length 3.75313  
     axis 0 0 0   XYZ
    dof ry rz
    limits (-20.0 10.0)
           (0.0 20.0)
  end
  begin
     id 18 
     name lhumerus
     direction 1 -4.48988e-011 1.44029e-027   
     length 5.49313   
     axis 180 -30 -90   XYZ
    dof rx ry rz
    limits (-60.0 90.0)
           (-90.0 90.0)
           (-90.0 90.0)
  end
  begin
     id 19
     name lradius
     direction 1 -4.48924e-011 7.46281e-027   
     length 3.29037   
     axis 180 -30 -90   XYZ
    dof rx
    limits (-10.0 170.0)
  end
  begin
     id 20
     name lwrist
     direction 1 -4.48955e-011 2.19879e-026   
     length 1.64519   
     axis -1.34358e-014 90 90   XYZ
    dof ry
    limits (-180.0 0.0)
 end
  begin
     id 21 
     name lhand
     direction 1 -4.48978e-011 4.39747e-026   
     length 0.729656   
     axis -2.80598e-014 90 90   XYZ
    dof rx rz
    limits (-90.0 90.0)
           (-45.0 45.0)
  end
  begin
     id 22 
     name lfingers
     direction 1 -4.49071e-011 8.79411e-026   
     length 0.588268   
     axis -5.61193e-014 90 90   XYZ
    dof rx
    limits (0.0 90.0)
  end
  begin
     id 23
     name lthumb
     direction 0.707107 -6.34817e-011 0.707107   
     length 0.844638   
     axis -90 45 -9.86923e-015   XYZ
    dof rx rz
    limits (-45.0 45.0)
           (-45.0 45.0)
  end
  begin
     id 24 
     name rclavicle
     direction -0.919898 0.388279 0.0550233   
     length 3.7171  
     axis 0 0 0   XYZ 
    dof ry rz
    limits (-10.0 20.0)
           (-20.0 0.0)
  end
  begin
     id 25 
     name rhumerus
     direction -1 -4.48968e-011 9.98372e-028  
     length 5.23684   
     axis 180 30 90   XYZ
    dof rx ry rz
    limits (-90.0 60.0)
           (-90.0 90.0)
           (-90.0 90.0)
  end
  begin
     id 26 
     name rradius
     direction -1 -4.48956e-011 1.01023e-026   
     length 3.38251   
     axis 180 30 90   XYZ
    dof rx
    limits (-10.0 170.0)
  end
  begin
     id 27 
     name rwrist
     direction -1 -4.4892e-011 2.19886e-026   
     length 1.69126   
     axis -1.34358e-014 -90 -90   XYZ
    dof ry
    limits (-180.0 0.0)
  end
  begin
     id 28
     name rhand
     direction -1 -4.49024e-011 4.39727e-026   
     length 0.691454   
     axis -2.80598e-014 -90 -90   XYZ
    dof rx rz
    limits (-90.0 90.0)
           (-45.0 45.0)
  end
  begin
     id 29
     name rfingers
     direction -1 -4.49097e-011 8.79388e-026   
     length 0.557468   
     axis -5.61193e-014 -90 -90   XYZ
    dof rx
    limits (0.0 90.0)
  end
  begin
     id 30
     name rthumb
     direction -0.707107 -6.34938e-011 0.707107   
     length 0.800416   
     axis -90 -45 9.86923e-015   XYZ
    dof rx rz
    limits (-45.0 45.0)
           (-45.0 45.0)
  end
:hierarchy
  begin
    root lhipjoint rhipjoint lowerback
    lhipjoint lfemur
    lfemur ltibia
    ltibia lfoot
    lfoot ltoes
    rhipjoint rfemur
    rfemur rtibia
    rtibia rfoot
    rfoot rtoes
    lowerback upperback
    upperback thorax
    thorax lowerneck lclavicle rclavicle
    lowerneck upperneck
    upperneck head
    lclavicle lhumerus
    lhumerus lradius
    lradius lwrist
    lwrist lhand lthumb
    lhand lfingers
    rclavicle rhumerus
    rhumerus rradius
    rradius rwrist
    rwrist rhand rthumb
    rhand rfingers
  end

#!OML:ASF H:\BabyWalks\Project 1\Capture day 1\Session 1\baby.ASF
:FULLY-SPECIFIED
:DEGREES
250
root -22.7769 17.3141 17.0012 -28.696 82.3292 -36.6196
lowerback 17.7032 0.584911 4.0077
upperback 4.66838 2.03249 4.11227
thorax -4.92559 1.09711 1.65086
lowerneck -2.56697 1.57819 10.794
upperneck -0.972691 1.92446 -14.6461
head 0.403736 0.918709 -6.19604
rclavicle 5.96354e-015 1.82882e-014
rhumerus -48.395 5.01206 -81.1791
rradius 36.3679
rwrist 7.50678
rhand -15.9228 -17.6979
rfingers 7.12502
rthumb 10.2746 -47.427
lclavicle 5.96354e-015 1.82882e-014
lhumerus -55.8846 -5.56638 84.3941
lradius 45.2188
lwrist -0.611226
lhand -5.97267 7.83447
lfingers 7.12502
lthumb 19.8586 36.8399
rfemur -13.7466 8.55317 24.2203
rtibia 32.7586
rfoot -22.6695 -2.72004
rtoes -5.9725
lfemur -20.1476 3.71514 -9.55374
ltibia 67.8257
lfoot -9.39942 -13.9191
ltoes -12.7787
251
root -22.62 17.3371 17.0092 -28.2911 82.4634 -36.2665
lowerback 17.7321 0.730952 4.01227
upperback 4.66972 2.21894 4.0281
thorax -4.93636 1.18711 1.51797
lowerneck -2.59653 1.58569 10.5397
upperneck -1.10731 1.92176 -14.2295
head 0.36126 0.918731 -6.02107
rclavicle -5.1684e-015 -1.51076e-014
rhumerus -48.313 4.77729 -81.101
rradius 36.7551
rwrist 7.03004
rhand -16.8471 -17.7855
rfingers 7.12502
rthumb 9.38283 -47.5567
lclavicle -5.1684e-015 -1.51076e-014
lhumerus -56.8076 -5.8436 84.6589
lradius 45.0871
lwrist -0.533169
lhand -3.32911 6.92657
lfingers 7.12502
lthumb 22.3981 35.648
rfemur -12.8405 8.42434 24.1491
rtibia 32.0349
rfoot -22.6066 -2.69124
rtoes -6.34965
lfemur -21.2682 3.80157 -9.97794
ltibia 67.6646
lfoot -11.1081 -12.5329
ltoes -12.3934
252
root -22.4632 17.3604 17.0166 -27.8146 82.5966 -35.8655
lowerback 17.7474 0.873007 4.00008
upperback 4.66983 2.39422 3.92457
thorax -4.94028 1.27148 1.37656
lowerneck -2.6535 1.59254 10.2364
upperneck -1.27093 1.91625 -13.785
head 0.313691 0.917239 -5.82969
rclavicle 9.14409e-015 -4.77083e-015
rhumerus -48.2715 4.64012 -81.1098
rradius 37.2189
rwrist 6.31839
rhand -17.6786 -17.8105
rfingers 7.12502
rthumb 8.58052 -47.6161
lclavicle 9.14409e-015 -4.77083e-015
lhumerus -57.7213 -6.1321 84.8922
lradius 45.0767
lwrist -0.398323
lhand -0.604594 6.39673
lfingers 7.12502
lthumb 25.0112 34.7794
rfemur -11.9634 8.31581 24.0676
rtibia 31.2939
rfoot -22.4844 -2.67067
rtoes -6.75701
lfemur -22.3715 3.83955 -10.4292
ltibia 67.2426
lfoot -12.6782 -11.1856
ltoes -11.9228
253
root -22.3032 17.3882 17.0236 -27.1569 82.7461 -35.2947
lowerback 17.7452 1.01434 3.96311
upperback 4.65479 2.56004 3.79073
thorax -4.95004 1.35041 1.21921
lowerneck -2.69025 1.58296 9.90435
upperneck -1.43791 1.89201 -13.321
head 0.258892 0.907323 -5.62862
rclavicle 2.70347e-014 1.11319e-014
rhumerus -48.3117 4.58539 -81.2057
rradius 37.7542
rwrist 5.43062
rhand -18.3876 -17.7892
rfingers 7.12502
rthumb 7.89626 -47.6217
lclavicle 2.70347e-014 1.11319e-014
lhumerus -58.6615 -6.45913 85.1043
lradius 45.169
lwrist -0.367032
lhand 2.0544 6.22267
lfingers 7.12502
lthumb 27.5566 34.2256
rfemur -11.0895 8.20864 23.9523
rtibia 30.5461
rfoot -22.3214 -2.64221
rtoes -7.16491
lfemur -23.4107 3.81313 -10.9289
ltibia 66.5433
lfoot -14.127 -9.89492
ltoes -11.6209
254
root -22.1416 17.4171 17.0307 -26.4674 82.8898 -34.7013
lowerback 17.7291 1.15767 3.91392
upperback 4.63516 2.72363 3.63842
thorax -4.95621 1.42799 1.05001
lowerneck -2.72513 1.5599 9.57152
upperneck -1.60096 1.85163 -12.8628
head 0.203207 0.889436 -5.4303
rclavicle -2.38542e-015 -1.74931e-014
rhumerus -48.3987 4.61125 -81.3791
rradius 38.3312
rwrist 4.42672
rhand -18.9462 -17.718
rfingers 7.12502
rthumb 7.35709 -47.5701
lclavicle -2.38542e-015 -1.74931e-014
lhumerus -59.5939 -6.80917 85.2917
lradius 45.3183
lwrist -0.552425
lhand 4.51925 6.30655
lfingers 7.12502
lthumb 29.9113 33.9098
rfemur -10.2374 8.12435 23.837
rtibia 29.8124
rfoot -22.1073 -2.61963
rtoes -7.59898
lfemur -24.3981 3.73095 -11.4296
ltibia 65.5879
lfoot -15.4154 -8.69843
ltoes -11.4116
255
root -21.977 17.4479 17.0377 -25.5862 83.0425 -33.9266
lowerback 17.6843 1.30179 3.82601
upperback 4.61441 2.87766 3.46777
thorax -4.94855 1.50105 0.88623
lowerneck -2.78747 1.53436 9.27103
upperneck -1.72118 1.81006 -12.4508
head 0.165516 0.869488 -5.25217
rclavicle -4.73108e-014 -4.92986e-014
rhumerus -48.5186 4.72191 -81.6121
rradius 38.9289
rwrist 3.38324
rhand -19.3361 -17.5812
rfingers 7.12502
rthumb 6.98075 -47.4461
lclavicle -4.73108e-014 -4.92986e-014
lhumerus -60.5083 -7.15792 85.4544
lradius 45.4948
lwrist -1.00275
lhand 6.70262 6.47578
lfingers 7.12502
lthumb 31.9926 33.6832
rfemur -9.40267 8.04265 23.6909
rtibia 29.0839
rfoot -21.8377 -2.57677
rtoes -8.03895
lfemur -25.318 3.58503 -11.9543
ltibia 64.3716
lfoot -16.5605 -7.6078
ltoes -11.2919
256
root -21.8094 17.4803 17.0448 -24.6542 83.2072 -33.1011
lowerback 17.6149 1.44327 3.71438
upperback 4.5968 3.02143 3.28321
thorax -4.92432 1.56947 0.724436
lowerneck -2.89938 1.51006 9.03051
upperneck -1.76758 1.77176 -12.1034
head 0.159446 0.848526 -5.10398
rclavicle -1.78906e-014 -4.77083e-014
rhumerus -48.6617 4.89567 -81.8914
rradius 39.5284
rwrist 2.35445
rhand -19.5459 -17.3891
rfingers 7.12502
rthumb 6.77822 -47.2606
lclavicle -1.78906e-014 -4.77083e-014
lhumerus -61.3903 -7.49973 85.5811
lradius 45.6782
lwrist -1.67136
lhand 8.55027 6.64225
lfingers 7.12502
lthumb 33.7501 33.4811
rfemur -8.57482 7.96395 23.5319
rtibia 28.3697
rfoot -21.5169 -2.52521
rtoes -8.53685
lfemur -26.1594 3.36093 -12.4743
ltibia 62.9148
lfoot -17.5543 -6.64745
ltoes -11.1371
